G04 DipTrace 3.3.1.1*
G04 TopSilk.gbr*
%MOIN*%
G04 #@! TF.FileFunction,Legend,Top*
G04 #@! TF.Part,Single*
%ADD10C,0.009843*%
%ADD14C,0.001312*%
%ADD15C,0.004*%
%ADD29C,0.004632*%
%ADD30C,0.003281*%
%ADD31C,0.006176*%
%ADD32C,0.003088*%
%FSLAX26Y26*%
G04*
G70*
G90*
G75*
G01*
G04 TopSilk*
%LPD*%
X412570Y530629D2*
D10*
Y581771D1*
Y630629D2*
Y681771D1*
X818700Y399949D2*
D14*
X487451Y399951D1*
G36*
X843701Y399949D2*
Y437449D1*
X818700Y399949D1*
X843701D1*
G37*
X487449D2*
D14*
Y424949D1*
X687451Y512449D2*
X824951D1*
X762449D2*
Y712449D1*
X824951D2*
X687451D1*
X681201Y812449D2*
X699951D1*
Y868700D1*
X674951D1*
X687451Y881200D1*
X674951Y868700D2*
X687451Y856200D1*
X743700Y812449D2*
X724951D1*
Y868700D1*
X749951D2*
X724951D1*
X749951D2*
X737451Y881200D1*
X749951Y868700D2*
X737451Y856200D1*
X687451Y612451D2*
X762449D1*
X481200Y531200D2*
D15*
X493701D1*
X481200Y581200D2*
X493701D1*
X481200Y631200D2*
X493701D1*
X481200Y681200D2*
X493701D1*
X824949Y512449D2*
D14*
Y712449D1*
X599579Y821941D2*
D29*
Y796108D1*
X586679Y809008D2*
X612512D1*
X638986Y824080D2*
X624660D1*
X623234Y811180D1*
X624660Y812606D1*
X628971Y814065D1*
X633249D1*
X637560Y812606D1*
X640445Y809754D1*
X641871Y805443D1*
Y802591D1*
X640445Y798280D1*
X637560Y795395D1*
X633249Y793969D1*
X628971D1*
X624660Y795395D1*
X623234Y796854D1*
X621775Y799706D1*
X651135Y824113D2*
X662609Y793969D1*
X674083Y824113D1*
X770701Y816950D2*
X769275Y819802D1*
X766390Y822687D1*
X763538Y824113D1*
X757801D1*
X754916Y822687D1*
X752064Y819802D1*
X750605Y816950D1*
X749179Y812639D1*
Y805443D1*
X750605Y801165D1*
X752064Y798280D1*
X754916Y795428D1*
X757801Y793969D1*
X763538D1*
X766390Y795428D1*
X769275Y798280D1*
X770701Y801165D1*
Y805443D1*
X763538D1*
X800060Y824113D2*
Y793969D1*
X779964Y824113D1*
Y793969D1*
X809324Y824113D2*
Y793969D1*
X819372D1*
X823683Y795428D1*
X826568Y798280D1*
X827994Y801165D1*
X829420Y805443D1*
Y812639D1*
X827994Y816950D1*
X826568Y819802D1*
X823683Y822687D1*
X819372Y824113D1*
X809324D1*
X493797Y421385D2*
D30*
X506697D1*
X511008Y422844D1*
X512467Y424270D1*
X513893Y427122D1*
Y430007D1*
X512467Y432858D1*
X511008Y434318D1*
X506697Y435744D1*
X493797D1*
Y405600D1*
X503845Y421385D2*
X513893Y405600D1*
X530503Y435744D2*
Y405600D1*
X520455Y435744D2*
X540551D1*
X547112Y405600D2*
X567208Y435710D1*
X573770Y435744D2*
Y405600D1*
X586703D1*
X591014Y407059D1*
X592440Y408485D1*
X593866Y411337D1*
Y415648D1*
X592440Y418533D1*
X591014Y419959D1*
X586703Y421385D1*
X591014Y422844D1*
X592440Y424270D1*
X593866Y427122D1*
Y430007D1*
X592440Y432858D1*
X591014Y434318D1*
X586703Y435744D1*
X573770D1*
Y421385D2*
X586703D1*
X609050Y435744D2*
X606165Y434318D1*
X603313Y431433D1*
X601854Y428581D1*
X600428Y424270D1*
Y417074D1*
X601854Y412796D1*
X603313Y409911D1*
X606165Y407059D1*
X609050Y405600D1*
X614787D1*
X617639Y407059D1*
X620524Y409911D1*
X621950Y412796D1*
X623376Y417074D1*
Y424270D1*
X621950Y428581D1*
X620524Y431433D1*
X617639Y434318D1*
X614787Y435744D1*
X609050D1*
X639985D2*
Y405600D1*
X629937Y435744D2*
X650033D1*
X666643D2*
Y405600D1*
X656595Y435744D2*
X676691D1*
X691875D2*
X688990Y434318D1*
X686138Y431433D1*
X684679Y428581D1*
X683253Y424270D1*
Y417074D1*
X684679Y412796D1*
X686138Y409911D1*
X688990Y407059D1*
X691875Y405600D1*
X697612D1*
X700464Y407059D1*
X703349Y409911D1*
X704775Y412796D1*
X706201Y417074D1*
Y424270D1*
X704775Y428581D1*
X703349Y431433D1*
X700464Y434318D1*
X697612Y435744D1*
X691875D1*
X735710Y405600D2*
Y435744D1*
X724236Y405600D1*
X712762Y435744D1*
Y405600D1*
X711834Y551342D2*
D31*
X709889Y555189D1*
X704185Y560937D1*
X744333D1*
X713736Y653289D2*
X711834D1*
X707988Y655190D1*
X706086Y657091D1*
X704185Y660938D1*
Y668587D1*
X706087Y672390D1*
X707988Y674291D1*
X711835Y676236D1*
X715637D1*
X719484Y674291D1*
X725188Y670488D1*
X744333Y651343D1*
Y678138D1*
X563382Y540022D2*
D32*
X583478D1*
Y546721D1*
X582506Y549595D1*
X580604Y551518D1*
X578681Y552469D1*
X575829Y553420D1*
X571032D1*
X568158Y552469D1*
X566256Y551518D1*
X564333Y549595D1*
X563382Y546721D1*
Y540022D1*
X567229Y559595D2*
X566257Y561519D1*
X563405Y564393D1*
X583478D1*
X563382Y640022D2*
X583478D1*
Y646721D1*
X582506Y649595D1*
X580604Y651518D1*
X578681Y652469D1*
X575829Y653420D1*
X571032D1*
X568158Y652469D1*
X566256Y651518D1*
X564333Y649595D1*
X563382Y646721D1*
Y640022D1*
X568180Y660568D2*
X567229D1*
X565306Y661519D1*
X564355Y662469D1*
X563405Y664393D1*
Y668217D1*
X564355Y670119D1*
X565306Y671069D1*
X567229Y672042D1*
X569131D1*
X571054Y671069D1*
X573906Y669168D1*
X583478Y659595D1*
Y672993D1*
X792036Y557592D2*
D31*
Y574792D1*
X790090Y580540D1*
X788189Y582486D1*
X784386Y584387D1*
X780540D1*
X776737Y582486D1*
X774792Y580540D1*
X772890Y574792D1*
Y557592D1*
X813082D1*
X792036Y570990D2*
X813082Y584387D1*
X772890Y608235D2*
X774792Y604388D1*
X778638Y600585D1*
X782441Y598640D1*
X788189Y596738D1*
X797784D1*
X803488Y598640D1*
X807334Y600585D1*
X811137Y604388D1*
X813082Y608234D1*
Y615884D1*
X811137Y619686D1*
X807334Y623533D1*
X803488Y625434D1*
X797784Y627336D1*
X788189D1*
X782441Y625434D1*
X778638Y623533D1*
X774792Y619686D1*
X772890Y615884D1*
Y608235D1*
X813082Y670284D2*
X772890D1*
X813082Y654986D1*
X772890Y639687D1*
X813082D1*
M02*
